<?xml version="1.0" encoding="UTF-8" standalone="no"?>
<svg
   xmlns:dc="http://purl.org/dc/elements/1.1/"
   xmlns:cc="http://creativecommons.org/ns#"
   xmlns:rdf="http://www.w3.org/1999/02/22-rdf-syntax-ns#"
   xmlns:svg="http://www.w3.org/2000/svg"
   xmlns="http://www.w3.org/2000/svg"
   xmlns:sodipodi="http://sodipodi.sourceforge.net/DTD/sodipodi-0.dtd"
   xmlns:inkscape="http://www.inkscape.org/namespaces/inkscape"
   width="50"
   height="50"
   viewBox="0 0 50 50"
   version="1.1"
   id="svg8"
   sodipodi:docname="number-8.svg"
   inkscape:version="1.0.1 (3bc2e813f5, 2020-09-07)">
  <defs
     id="defs2" />
  <sodipodi:namedview
     id="base"
     pagecolor="#ffffff"
     bordercolor="#666666"
     borderopacity="1.0"
     inkscape:pageopacity="0.0"
     inkscape:pageshadow="2"
     inkscape:zoom="11.2"
     inkscape:cx="21.154105"
     inkscape:cy="16.230001"
     inkscape:document-units="px"
     inkscape:current-layer="layer1"
     inkscape:document-rotation="0"
     showgrid="false"
     units="px"
     inkscape:window-width="1920"
     inkscape:window-height="1027"
     inkscape:window-x="-8"
     inkscape:window-y="-8"
     inkscape:window-maximized="1"
     showguides="true"
     inkscape:guide-bbox="true">
    <sodipodi:guide
       position="-6.7857143,6.9642857"
       orientation="0,-1"
       id="guide836" />
    <sodipodi:guide
       position="-4.7321429,43.035714"
       orientation="0,-1"
       id="guide838" />
  </sodipodi:namedview>
  <metadata
     id="metadata5">
    <rdf:RDF>
      <cc:Work
         rdf:about="">
        <dc:format>image/svg+xml</dc:format>
        <dc:type
           rdf:resource="http://purl.org/dc/dcmitype/StillImage" />
        <dc:title></dc:title>
      </cc:Work>
    </rdf:RDF>
  </metadata>
  <g
     inkscape:label="Layer 1"
     inkscape:groupmode="layer"
     id="layer1">
    <g
       aria-label="8"
       id="text860"
       style="font-style:normal;font-weight:normal;font-size:49.1601px;line-height:125%;font-family:sans-serif;letter-spacing:0px;word-spacing:0px;fill:#000000;fill-opacity:1;stroke:none;stroke-width:1.229px;stroke-linecap:butt;stroke-linejoin:miter;stroke-opacity:1">
      <path
         d="m 37.698092,32.921999 q 0,4.632763 -3.624597,7.70527 Q 30.472902,43.699775 25,43.699775 q -5.808957,0 -9.265527,-3.000495 -3.432565,-3.000494 -3.432565,-7.681265 0,-2.97649 1.728285,-5.376886 1.728284,-2.424399 4.872802,-3.840633 v -0.144023 q -2.880474,-1.536253 -4.272703,-3.360554 -1.368226,-1.824301 -1.368226,-4.560751 0,-4.032665 3.312546,-6.7211077 Q 19.887158,6.3256174 25,6.3256174 q 5.352882,0 8.545408,2.5684232 3.192526,2.5684234 3.192526,6.5290754 0,2.4244 -1.512249,4.776787 -1.51225,2.328384 -4.440732,3.648601 v 0.144024 q 3.360554,1.440237 5.136846,3.552585 1.776293,2.112348 1.776293,5.376886 z M 32.009155,15.471124 q 0,-2.568423 -1.992329,-4.080672 -1.968324,-1.5362532 -5.04083,-1.5362532 -3.024498,0 -4.968819,1.4402372 -1.920316,1.440237 -1.920316,3.888641 0,1.728284 0.960158,3.000494 0.984162,1.248206 2.952487,2.232368 0.888146,0.432071 2.544419,1.128186 1.680277,0.696114 3.264538,1.152189 2.376391,-1.584261 3.288541,-3.288541 0.912151,-1.704281 0.912151,-3.936649 z m 0.744122,17.90695 q 0,-2.208364 -0.984162,-3.528581 -0.960158,-1.344222 -3.792625,-2.688443 -1.128186,-0.528087 -2.472407,-0.984162 -1.344221,-0.456075 -3.576589,-1.27221 -2.160356,1.176194 -3.480574,3.192526 -1.296213,2.016332 -1.296213,4.560752 0,3.240533 2.232368,5.352882 2.232367,2.112348 5.664933,2.112348 3.504577,0 5.592921,-1.800297 2.112348,-1.800297 2.112348,-4.944815 z"
         style="stroke-width:1.229px"
         id="path862" />
    </g>
  </g>
</svg>
