<?xml version="1.0" encoding="UTF-8"?>
<svg width="50" height="50" version="1.1" viewBox="0 0 50 50" xmlns="http://www.w3.org/2000/svg" xmlns:cc="http://creativecommons.org/ns#" xmlns:dc="http://purl.org/dc/elements/1.1/" xmlns:rdf="http://www.w3.org/1999/02/22-rdf-syntax-ns#">
 <metadata>
  <rdf:RDF>
   <cc:Work rdf:about="">
    <dc:format>image/svg+xml</dc:format>
    <dc:type rdf:resource="http://purl.org/dc/dcmitype/StillImage"/>
    <dc:title/>
   </cc:Work>
  </rdf:RDF>
 </metadata>
 <g aria-label="2">
  <path fill="#008009" d="m36.946 43.013h-23.891v-4.9537q2.4887-2.1332 4.9774-4.2663 2.5124-2.1332 4.6693-4.2426 4.5508-4.4085 6.2336-6.992 1.6828-2.6072 1.6828-5.6173 0-2.7494-1.825-4.29-1.8013-1.5643-5.0485-1.5643-2.1569 0-4.6693 0.75846-2.5124 0.75846-4.9063 2.3228h-0.23702v-4.9774q1.6828-0.82956 4.4797-1.5169 2.8205-0.68735 5.4514-0.68735 5.4277 0 8.509 2.6309 3.0812 2.6072 3.0812 7.0869 0 2.0147-0.52144 3.7686-0.49774 1.7302-1.4932 3.2946-0.92437 1.4695-2.1806 2.8916-1.2325 1.4221-3.0101 3.1523-2.5361 2.4887-5.2381 4.8352-2.702 2.3228-5.0485 4.3137h18.985z" stroke-width="1.2135px"/>
 </g>
</svg>
