<?xml version="1.0" encoding="UTF-8"?>
<svg width="50" height="50" version="1.1" viewBox="0 0 50 50" xmlns="http://www.w3.org/2000/svg" xmlns:cc="http://creativecommons.org/ns#" xmlns:dc="http://purl.org/dc/elements/1.1/" xmlns:rdf="http://www.w3.org/1999/02/22-rdf-syntax-ns#">
 <metadata>
  <rdf:RDF>
   <cc:Work rdf:about="">
    <dc:format>image/svg+xml</dc:format>
    <dc:type rdf:resource="http://purl.org/dc/dcmitype/StillImage"/>
    <dc:title/>
   </cc:Work>
  </rdf:RDF>
 </metadata>
 <g aria-label="6">
  <path d="m37.659 31.294q0 5.4528-3.6031 8.9118-3.5791 3.435-8.7917 3.435-2.6423 0-4.8042-0.81671t-3.8193-2.4261q-2.0658-1.9937-3.1948-5.2846-1.105-3.2909-1.105-7.9269 0-4.7561 1.0089-8.4314 1.0329-3.6752 3.2668-6.5337 2.1138-2.7144 5.4528-4.2277 3.3389-1.5373 7.7828-1.5373 1.4172 0 2.3781 0.1201 0.96084 0.1201 1.9457 0.43238v4.588h-0.24021q-0.67259-0.36031-2.0418-0.67259-1.3452-0.33629-2.7624-0.33629-5.1645 0-8.2392 3.2428-3.0747 3.2188-3.5791 8.7196 2.0178-1.2251 3.9635-1.8496 1.9697-0.64856 4.54-0.64856 2.282 0 4.0115 0.43238 1.7535 0.40836 3.5791 1.6815 2.1138 1.4653 3.1708 3.6992 1.0809 2.2339 1.0809 5.4287zm-4.8763 0.19217q0-2.2339-0.67259-3.6992-0.64856-1.4653-2.1619-2.5462-1.105-0.76867-2.4501-1.0089-1.3452-0.24021-2.8104-0.24021-2.0418 0-3.7953 0.48042t-3.6031 1.4893q-0.04804 0.52846-0.07206 1.0329-0.02402 0.48042-0.02402 1.2251 0 3.7953 0.76867 6.0052 0.79269 2.1859 2.1619 3.459 1.105 1.0569 2.3781 1.5614 1.2971 0.48042 2.8105 0.48042 3.483 0 5.4768-2.1138 1.9937-2.1379 1.9937-6.1253z" stroke-width="1.2299px"/>
 </g>
</svg>
