<?xml version="1.0" encoding="UTF-8"?>
<svg width="50" height="50" version="1.1" viewBox="0 0 50 50" xmlns="http://www.w3.org/2000/svg" xmlns:cc="http://creativecommons.org/ns#" xmlns:dc="http://purl.org/dc/elements/1.1/" xmlns:rdf="http://www.w3.org/1999/02/22-rdf-syntax-ns#">
 <metadata>
  <rdf:RDF>
   <cc:Work rdf:about="">
    <dc:format>image/svg+xml</dc:format>
    <dc:type rdf:resource="http://purl.org/dc/dcmitype/StillImage"/>
    <dc:title/>
   </cc:Work>
  </rdf:RDF>
 </metadata>
 <g aria-label="3">
  <path fill="#cf1500" d="m34.025 25.652q1.1385 1.0199 1.8737 2.5615 0.73526 1.5417 0.73526 3.9846 0 2.4192-0.87756 4.4353t-2.4667 3.5103q-1.7788 1.6603-4.1981 2.4667-2.3955 0.78269-5.2654 0.78269-2.941 0-5.7872-0.71154-2.8462-0.68782-4.6724-1.5179v-4.957h0.35577q2.016 1.3282 4.7436 2.2058t5.2654 0.87756q1.4942 0 3.1782-0.49808 1.684-0.49808 2.7276-1.4705 1.091-1.0436 1.6128-2.3006 0.54551-1.257 0.54551-3.1782 0-1.8974-0.61667-3.1308-0.59295-1.257-1.6603-1.9686-1.0673-0.73526-2.5853-0.99615-1.5179-0.28462-3.2731-0.28462h-2.1346v-3.9372h1.6603q3.6051 0 5.7397-1.4942 2.1583-1.5179 2.1583-4.4115 0-1.2808-0.54551-2.2295-0.54551-0.97244-1.5179-1.5891-1.0199-0.61666-2.182-0.85384-1.1622-0.23718-2.6327-0.23718-2.2532 0-4.791 0.80641-2.5378 0.80641-4.791 2.2769h-0.23718v-4.957q1.684-0.83013 4.4827-1.5179 2.8224-0.71154 5.4551-0.71154 2.5853 0 4.5538 0.47436 1.9686 0.47436 3.5577 1.5179 1.7077 1.1385 2.5853 2.7513 0.87756 1.6128 0.87756 3.7711 0 2.941-2.0872 5.1468-2.0635 2.182-4.8859 2.7513v0.33205q1.1385 0.18974 2.609 0.80641 1.4705 0.59295 2.4904 1.4942z" stroke-width="1.2144px"/>
 </g>
</svg>
